<svg xmlns="http://www.w3.org/2000/svg" xmlns:xlink="http://www.w3.org/1999/xlink" width="20.656" height="15.16" viewBox="0 0 20.656 15.16">
  <defs>
    <style>
      .cls-1 {
        fill: #3c4a5a;
        fill-rule: evenodd;
        filter: url(#filter);
      }
    </style>
    <filter id="filter" x="443" y="3394" width="20.656" height="15.16" filterUnits="userSpaceOnUse">
      <feFlood result="flood" flood-color="#38aa96"/>
      <feComposite result="composite" operator="in" in2="SourceGraphic"/>
      <feBlend result="blend" in2="SourceGraphic"/>
    </filter>
  </defs>
  <path id="icon" class="cls-1" d="M459.507,3396.49l-0.037-.02a3.559,3.559,0,0,0-2.716-1.03l-0.037-.08,0.025-.01a3.13,3.13,0,0,0,1.674-.68,0.235,0.235,0,0,0-.223-0.34,5.107,5.107,0,0,0-1.3.33c0.5-.33.683-0.55,0.571-0.66a2.481,2.481,0,0,0-1.563.76,0.973,0.973,0,0,0,.236-0.57,3.509,3.509,0,0,0-.695.58,10.918,10.918,0,0,0-1.017,1.3l-0.012.03a11.42,11.42,0,0,0-1.4,3.26l-0.1.08-0.025.02a5.27,5.27,0,0,0-1.451-1.26,16.889,16.889,0,0,0-2.381-1.26,20.532,20.532,0,0,0-3.026-1.28,3.053,3.053,0,0,0,1.662,2.73v0.01a3.712,3.712,0,0,0-1.141.18c0.074,1.06.831,1.79,2.257,2.19l-0.012.03a1.6,1.6,0,0,0-1.377.57,2.493,2.493,0,0,0,2.5,1.32,1.864,1.864,0,0,0-.545.4,0.845,0.845,0,0,0-.224.82,1.352,1.352,0,0,0,1.4.64l0.037,0.05-0.012.03a5.228,5.228,0,0,1-4.267,1.65l-0.025.01a5.456,5.456,0,0,1-3.286-1.46,10.175,10.175,0,0,0,4.7,3.7,11.1,11.1,0,0,0,6.673.17h0.037a10.6,10.6,0,0,0,5.494-3.85,7.6,7.6,0,0,0,1.3-2.9,2.7,2.7,0,0,0,2.443-.98l-0.013-.03a4.781,4.781,0,0,1-2.195-.12v-0.12c1.191-.14,1.9-0.52,2.121-1.16a3.263,3.263,0,0,1-2.456.03,5.351,5.351,0,0,0-1.6-3.08" transform="translate(-443 -3394)"/>
</svg>
